# xmcd CD database file
#
# Track frame offsets:
#	182
#	13222
#	27085
#	41210
#	54835
#	68340
#	81532
#	94745
#	108377
#	122700
#	137042
#	151060
#	164802
#	179312
#	193370
#	208167
#	220725
#	233145
#	246667
#	260197
#	274165
#	289542
#	302557
#	313820
#	325877
#	337287
#
# Disc length: 4662 seconds
#
# Revision: 0
# Processed by: cddbd v1.4PL0 Copyright (c) Steve Scherf et al.
# Submitted via: CDex 1.50beta10
#
DISCID=9312341a
DTITLE=Gabriel Brown - Mean Old Blues
DYEAR=1996
DGENRE=Blues
TTITLE0=I Get Evil When My Love Comes Down
TTITLE1=You Ain't No Good
TTITLE2=Black Jack Blues
TTITLE3=Going My Way
TTITLE4=Down in the Bottom
TTITLE5=Bad Love
TTITLE6=I've Got To Stop Drinkin'
TTITLE7=Cold Love
TTITLE8=Not Now, I'll Tell You When
TTITLE9=I'm Gonna Take It Easy
TTITLE10=I've Done Stopped Gamblin'
TTITLE11=It's Getting Soft
TTITLE12=Don't Worry About It
TTITLE13=Hold That Train
TTITLE14=Boogie Woogie Guitar
TTITLE15=That's Alright
TTITLE16=Stick With Me
TTITLE17=Doing My Best
TTITLE18=Good-Time Papa
TTITLE19=Baby, Boy, Baby
TTITLE20=Mean Old Blues
TTITLE21=You Have To Be Different
TTITLE22=The Jinx Is On Me
TTITLE23=It's Time To Move
TTITLE24=Hold Me Baby
TTITLE25=Nobody Loves Me Like My Little Girl
EXTD=YEAR: 1996
EXTT0=
EXTT1=
EXTT2=
EXTT3=
EXTT4=
EXTT5=
EXTT6=
EXTT7=
EXTT8=
EXTT9=
EXTT10=
EXTT11=
EXTT12=
EXTT13=
EXTT14=
EXTT15=
EXTT16=
EXTT17=
EXTT18=
EXTT19=
EXTT20=
EXTT21=
EXTT22=
EXTT23=
EXTT24=
EXTT25=
PLAYORDER=
